<svg width="50" height="50" viewBox="0 0 50 50" fill="none" xmlns="http://www.w3.org/2000/svg">
<path d="M25 16.0156C23.2231 16.0156 21.486 16.5425 20.0085 17.5298C18.5311 18.517 17.3795 19.9201 16.6995 21.5618C16.0195 23.2035 15.8416 25.01 16.1883 26.7528C16.5349 28.4956 17.3906 30.0964 18.6471 31.3529C19.9036 32.6094 21.5044 33.4651 23.2472 33.8117C24.99 34.1584 26.7965 33.9805 28.4382 33.3005C30.0799 32.6205 31.483 31.4689 32.4702 29.9915C33.4575 28.514 33.9844 26.7769 33.9844 25C33.9817 22.618 33.0343 20.3344 31.3499 18.6501C29.6656 16.9657 27.382 16.0183 25 16.0156ZM25 31.6406C23.6866 31.6406 22.4027 31.2512 21.3107 30.5215C20.2186 29.7918 19.3675 28.7547 18.8649 27.5413C18.3622 26.3278 18.2307 24.9926 18.487 23.7045C18.7432 22.4163 19.3757 21.2331 20.3044 20.3044C21.2331 19.3757 22.4163 18.7432 23.7045 18.487C24.9926 18.2307 26.3278 18.3622 27.5413 18.8649C28.7547 19.3675 29.7918 20.2186 30.5215 21.3107C31.2512 22.4027 31.6406 23.6866 31.6406 25C31.6386 26.7606 30.9383 28.4485 29.6934 29.6934C28.4485 30.9383 26.7606 31.6386 25 31.6406ZM33.5938 5.85938H16.4062C13.61 5.86258 10.9293 6.97479 8.95202 8.95202C6.97479 10.9293 5.86258 13.61 5.85938 16.4062V33.5938C5.86258 36.39 6.97479 39.0708 8.95202 41.048C10.9293 43.0252 13.61 44.1374 16.4062 44.1406H33.5938C36.39 44.1374 39.0708 43.0252 41.048 41.048C43.0252 39.0708 44.1374 36.39 44.1406 33.5938V16.4062C44.1374 13.61 43.0252 10.9293 41.048 8.95202C39.0708 6.97479 36.39 5.86258 33.5938 5.85938ZM41.7969 33.5938C41.7944 35.7686 40.9294 37.8537 39.3916 39.3916C37.8537 40.9294 35.7686 41.7944 33.5938 41.7969H16.4062C14.2314 41.7944 12.1463 40.9294 10.6084 39.3916C9.07059 37.8537 8.20555 35.7686 8.20312 33.5938V16.4062C8.20555 14.2314 9.07059 12.1463 10.6084 10.6084C12.1463 9.07059 14.2314 8.20555 16.4062 8.20312H33.5938C35.7686 8.20555 37.8537 9.07059 39.3916 10.6084C40.9294 12.1463 41.7944 14.2314 41.7969 16.4062V33.5938ZM37.1094 14.8438C37.1094 15.23 36.9948 15.6077 36.7802 15.9288C36.5656 16.25 36.2606 16.5004 35.9037 16.6482C35.5468 16.796 35.1541 16.8347 34.7752 16.7593C34.3963 16.684 34.0483 16.498 33.7752 16.2248C33.502 15.9517 33.316 15.6037 33.2407 15.2248C33.1653 14.8459 33.204 14.4532 33.3518 14.0963C33.4996 13.7394 33.75 13.4344 34.0711 13.2198C34.3923 13.0052 34.77 12.8906 35.1562 12.8906C35.6741 12.8912 36.1705 13.0972 36.5366 13.4634C36.9028 13.8295 37.1088 14.3259 37.1094 14.8438Z" fill="black"/>
</svg>
